#!OML:ASF F:\VICON\USERDATA\INSTALL\rory3\rory3.ASF
:FULLY-SPECIFIED
:DEGREES
935
root -0.90921 16.6423 9.06642 15.9041 -6.26925 -1.16958
lowerback -5.03726 -2.11447 2.8032
upperback -6.03758 -2.8657 1.94829
thorax -3.45058 -1.51075 0.389626
lowerneck -11.9084 -4.93893 -8.17577
upperneck 20.3039 -5.72331 2.46857
head 8.61415 -3.09404 1.54756
rclavicle -2.13694e-014 -1.66979e-014
rhumerus -48.5374 3.04744 -83.6805
rradius 43.1741
rwrist 7.07376
rhand -26.7323 -55.0278
rfingers 7.12502
rthumb -0.161552 -85.0075
lclavicle -2.13694e-014 -1.66979e-014
lhumerus -44.7203 -13.1488 84.7348
lradius 49.9179
lwrist 0.190357
lhand -34.1546 -41.0004
lfingers 7.12502
lthumb -7.32882 -11.1474
rfemur -43.3934 2.14313 16.7497
rtibia 61.5177
rfoot -13.9093 -3.51292
rtoes -28.0085
lfemur -34.1093 4.59861 -7.74809
ltibia 50.4253
lfoot -15.1114 9.72872
ltoes -29.1326
936
root -0.867135 16.4235 9.04205 15.4085 -5.17503 -0.828019
lowerback -3.96463 -2.47678 2.52335
upperback -6.13755 -3.29953 1.91995
thorax -4.1483 -1.72074 0.566591
lowerneck -11.8157 -5.21882 -8.35068
upperneck 19.7565 -6.09447 2.57161
head 8.44294 -3.26537 1.57139
rclavicle -4.46644e-014 8.34896e-015
rhumerus -48.629 2.67903 -83.6367
rradius 43.5288
rwrist 7.03904
rhand -26.6186 -55.897
rfingers 7.12502
rthumb -0.0516945 -85.8767
lclavicle -4.46644e-014 8.34896e-015
lhumerus -44.8712 -13.1463 84.8468
lradius 50.2394
lwrist 0.151589
lhand -34.2743 -42.0526
lfingers 7.12502
lthumb -7.44438 -12.2036
rfemur -43.0731 0.960946 16.7996
rtibia 63.1209
rfoot -17.3655 -5.6921
rtoes -27.1592
lfemur -35.0073 4.89141 -8.16746
ltibia 52.4647
lfoot -17.9218 10.3041
ltoes -29.2982
937
root -0.832307 16.2017 8.98996 15.6219 -4.46013 -0.786663
lowerback -3.62139 -2.59031 2.44954
upperback -6.1788 -3.43547 1.94824
thorax -4.38012 -1.78554 0.656496
lowerneck -11.4783 -5.52733 -8.80965
upperneck 18.6773 -6.53291 3.04414
head 8.07827 -3.44948 1.76608
rclavicle -4.67889e-014 0
rhumerus -48.2128 2.06858 -83.471
rradius 43.6435
rwrist 7.21348
rhand -27.2306 -54.6746
rfingers 7.12502
rthumb -0.642817 -84.6534
lclavicle -4.67889e-014 0
lhumerus -44.4616 -13.2685 84.924
lradius 50.3519
lwrist 0.00830138
lhand -34.4819 -42.7383
lfingers 7.12502
lthumb -7.64469 -12.8965
rfemur -43.8507 0.270161 17.0104
rtibia 64.8043
rfoot -20.1979 -7.68986
rtoes -25.967
lfemur -36.7206 5.68062 -8.3842
ltibia 54.5866
lfoot -20.1462 10.4278
ltoes -25.4889
938
root -0.802844 15.9801 8.93077 16.3066 -4.23367 -0.942051
lowerback -3.43602 -2.50133 2.54436
upperback -6.50881 -3.30238 1.95503
thorax -4.83718 -1.72735 0.632931
lowerneck -10.9236 -5.83264 -9.18584
upperneck 17.6074 -6.98641 3.43944
head 7.68179 -3.64764 1.92596
rclavicle 1.4797e-014 6.75868e-015
rhumerus -47.9895 1.42281 -83.3248
rradius 43.562
rwrist 7.55156
rhand -26.6029 -56.7004
rfingers 7.12502
rthumb -0.0365228 -86.6802
lclavicle 1.4797e-014 6.75868e-015
lhumerus -44.2262 -13.4785 84.96
lradius 50.2773
lwrist -0.15366
lhand -34.7786 -43.469
lfingers 7.12502
lthumb -7.93104 -13.6378
rfemur -45.4056 0.141174 17.2657
rtibia 66.4068
rfoot -22.6525 -9.67939
rtoes -24.5604
lfemur -38.862 6.87923 -8.54647
ltibia 56.7896
lfoot -22.0838 10.5865
ltoes -23.4193
939
root -0.777223 15.7855 8.86992 15.7992 -3.27289 -0.408424
lowerback -1.95308 -2.80109 2.48365
upperback -6.58189 -3.66782 1.47678
thorax -5.78889 -1.9219 0.265403
lowerneck -11.0278 -6.19374 -8.9952
upperneck 17.1168 -7.5353 3.64958
head 7.57444 -3.87106 1.90364
rclavicle -4.70623e-014 3.47873e-014
rhumerus -47.5917 0.678467 -83.6941
rradius 43.0668
rwrist 8.02981
rhand -26.4169 -57.7631
rfingers 7.12502
rthumb 0.143095 -87.7428
lclavicle -4.70623e-014 3.47873e-014
lhumerus -43.8869 -13.9443 84.4395
lradius 49.9443
lwrist -0.228713
lhand -34.9495 -44.7425
lfingers 7.12502
lthumb -8.09605 -14.9176
rfemur -45.6242 -0.557452 17.0091
rtibia 67.9498
rfoot -24.8039 -11.9193
rtoes -22.2441
lfemur -39.9245 6.84654 -9.0808
ltibia 58.8205
lfoot -24.0094 10.5208
ltoes -21.91
940
root -0.753057 15.5926 8.8074 15.6424 -2.98591 0.031912
lowerback -2.19212 -2.86466 1.30954
upperback -5.73155 -3.77826 1.64545
thorax -4.66238 -1.90998 1.04132
lowerneck -13.2575 -7.03132 -8.41532
upperneck 17.2983 -8.34792 2.40765
head 8.00329 -4.30193 1.23802
rclavicle -2.98177e-016 -1.94809e-014
rhumerus -45.5666 0.549955 -83.3601
rradius 42.7569
rwrist 8.1774
rhand -26.3742 -59.3712
rfingers 7.12502
rthumb 0.184363 -89.3509
lclavicle -2.98177e-016 -1.94809e-014
lhumerus -41.6433 -13.7757 84.2433
lradius 49.0437
lwrist -0.603987
lhand -34.8895 -45.9399
lfingers 7.12502
lthumb -8.0381 -16.1128
rfemur -46.3883 -0.663285 16.6417
rtibia 69.4615
rfoot -26.681 -13.6615
rtoes -18.7218
lfemur -41.3442 7.31485 -9.70261
ltibia 60.8899
lfoot -26.0323 11.0079
ltoes -21.6823
941
root -0.738095 15.4043 8.73584 15.5684 -3.21788 0.999241
lowerback -1.33262 -2.83512 -0.268365
upperback -5.61718 -3.75604 1.45368
thorax -4.93932 -1.83118 1.76271
lowerneck -14.4509 -7.46652 -7.99292
upperneck 17.3454 -8.81887 1.86355
head 8.20962 -4.53405 0.892581
rclavicle 2.8128e-014 7.15625e-015
rhumerus -44.6125 0.401904 -83.2651
rradius 42.6245
rwrist 8.33711
rhand -26.2767 -60.9963
rfingers 7.12502
rthumb 0.278489 -269.024
lclavicle 2.8128e-014 7.15625e-015
lhumerus -40.6222 -13.5291 83.8321
lradius 48.2885
lwrist -1.49128
lhand -34.8723 -46.578
lfingers 7.12502
lthumb -8.02153 -16.7503
rfemur -47.5357 -0.455715 15.6236
rtibia 71.0746
rfoot -28.4989 -15.3574
rtoes -17.0479
lfemur -42.8086 7.8388 -10.9983
ltibia 62.8474
lfoot -27.8039 12.2125
ltoes -22.3407
942
root -0.713092 15.237 8.71039 16.4787 -2.98976 0.309463
lowerback -1.90627 -2.81458 0.235744
upperback -5.73011 -3.71503 1.71038
thorax -4.74899 -1.82926 1.7182
lowerneck -15.0043 -7.7354 -7.75278
upperneck 17.0668 -9.12481 1.56117
head 8.20137 -4.68347 0.701757
rclavicle -2.16427e-014 3.69739e-014
rhumerus -43.657 0.320993 -83.1141
rradius 41.9698
rwrist 8.71609
rhand -26.2942 -61.2118
rfingers 7.12502
rthumb 0.261563 -268.809
lclavicle -2.16427e-014 3.69739e-014
lhumerus -39.9654 -12.7672 83.2936
lradius 47.6896
lwrist -2.96731
lhand -34.9977 -47.0379
lfingers 7.12502
lthumb -8.14256 -17.2148
rfemur -49.1788 -0.117864 16.4725
rtibia 72.391
rfoot -30.3373 -17.3532
rtoes -17.1451
lfemur -44.9893 8.48235 -10.4889
ltibia 64.8605
lfoot -29.3718 13.1024
ltoes -22.2888
943
root -0.678282 15.0781 8.67209 17.5236 -3.63514 -0.262996
lowerback -2.56405 -2.52094 0.600573
upperback -5.93401 -3.32225 1.81516
thorax -4.61546 -1.64855 1.58916
lowerneck -14.2538 -7.9059 -8.17071
upperneck 15.7982 -9.44517 2.30226
head 7.72066 -4.79075 1.01893
rclavicle -6.5102e-015 5.1684e-015
rhumerus -42.7545 0.314018 -83.0347
rradius 41.1618
rwrist 9.08483
rhand -26.5556 -60.3249
rfingers 7.12502
rthumb 0.00908573 -269.695
lclavicle -6.5102e-015 5.1684e-015
lhumerus -39.3362 -11.9052 82.6565
lradius 47.089
lwrist -4.57311
lhand -34.8962 -47.7104
lfingers 7.12502
lthumb -8.04457 -17.8835
rfemur -51.3537 0.846972 16.8436
rtibia 73.7593
rfoot -31.7252 -18.5029
rtoes -15.414
lfemur -47.0546 9.57677 -10.3284
ltibia 66.8485
lfoot -30.525 13.8321
ltoes -21.8835
944
root -0.637642 14.9726 8.63473 17.4318 -3.30293 -0.59334
lowerback -2.23262 -2.53905 1.11435
upperback -5.81365 -3.3391 1.80163
thorax -4.70716 -1.67891 1.30302
lowerneck -10.9419 -7.63373 -9.99269
upperneck 12.1369 -9.47514 5.57881
head 6.22271 -4.6634 2.51669
rclavicle -4.05024e-015 -1.51076e-014
rhumerus -41.7474 0.127733 -82.9258
rradius 40.3189
rwrist 9.51876
rhand -26.4559 -59.9321
rfingers 7.12502
rthumb 0.105444 -89.9119
lclavicle -4.05024e-015 -1.51076e-014
lhumerus -38.6958 -11.0949 82.0118
lradius 46.5326
lwrist -5.97676
lhand -34.6104 -48.3625
lfingers 7.12502
lthumb -7.76873 -18.5252
rfemur -51.9658 0.935453 17.2781
rtibia 75.046
rfoot -32.1885 -20.1199
rtoes -14.5429
lfemur -48.0536 9.43425 -9.95868
ltibia 68.6605
lfoot -31.2224 14.4715
ltoes -22.2351
945
root -0.582466 14.881 8.57351 17.0266 -3.05489 -0.873423
lowerback -1.31208 -2.56384 1.72471
upperback -5.65969 -3.34584 1.75754
thorax -5.10721 -1.70826 0.961931
lowerneck -10.6843 -7.8822 -10.0894
upperneck 11.4395 -9.82805 5.81644
head 6.00321 -4.82338 2.58622
rclavicle -1.65488e-014 -3.77691e-015
rhumerus -40.6883 -0.140251 -82.7218
rradius 39.431
rwrist 9.94331
rhand -26.3426 -58.9155
rfingers 7.12502
rthumb 0.214824 -88.8951
lclavicle -1.65488e-014 -3.77691e-015
lhumerus -38.0849 -10.1646 81.4097
lradius 46.1277
lwrist -7.03026
lhand -34.4861 -48.9593
lfingers 7.12502
lthumb -7.64877 -19.1176
rfemur -52.3751 1.01378 17.52
rtibia 76.3309
rfoot -31.8494 -21.6178
rtoes -16.2223
lfemur -48.842 9.09829 -9.64284
ltibia 70.3777
lfoot -31.51 15.0881
ltoes -22.6535
946
root -0.574711 14.746 8.49433 17.2363 -4.66802 -0.396799
lowerback -0.937093 -2.11412 0.312117
upperback -5.69949 -2.77116 1.58716
thorax -5.30139 -1.36006 1.57083
lowerneck -10.1382 -8.18294 -10.3317
upperneck 10.4677 -10.2655 6.20772
head 5.67448 -5.02661 2.73268
rclavicle 7.57867e-015 2.98177e-015
rhumerus -39.6743 -0.297317 -82.6715
rradius 38.7358
rwrist 10.1364
rhand -25.8316 -58.2936
rfingers 7.12502
rthumb 0.708393 -88.2721
lclavicle 7.57867e-015 2.98177e-015
lhumerus -37.5579 -9.3264 80.8629
lradius 45.8717
lwrist -7.63629
lhand -34.7885 -49.7809
lfingers 7.12502
lthumb -7.94061 -19.9501
rfemur -54.5804 2.97612 16.4232
rtibia 77.9061
rfoot -31.2215 -22.1797
rtoes -17.1013
lfemur -50.1246 10.2365 -10.4826
ltibia 71.9587
lfoot -31.6355 15.379
ltoes -22.4942
947
root -0.533529 14.6735 8.5196 17.1539 -5.08583 -0.866479
lowerback -1.65883 -1.8946 1.03513
upperback -5.37892 -2.48242 1.48781
thorax -4.59571 -1.25356 1.01676
lowerneck -9.9313 -8.55735 -10.4474
upperneck 10.067 -10.7785 6.35705
head 5.57183 -5.27375 2.75693
rclavicle 3.92972e-014 1.41137e-014
rhumerus -38.5632 -0.490193 -82.6779
rradius 37.902
rwrist 10.2768
rhand -25.1243 -58.8785
rfingers 7.12502
rthumb 1.39155 -88.8537
lclavicle 3.92972e-014 1.41137e-014
lhumerus -37.0872 -8.67284 80.3796
lradius 45.5855
lwrist -7.55914
lhand -35.0084 -50.0621
lfingers 7.12502
lthumb -8.15283 -20.2394
rfemur -54.8787 3.88463 16.529
rtibia 78.7636
rfoot -31.3719 -22.6313
rtoes -17.3357
lfemur -50.2902 10.5759 -10.1549
ltibia 73.125
lfoot -32.358 15.8404
ltoes -22.4691
948
root -0.491949 14.6305 8.53667 16.5229 -5.76318 -1.39063
lowerback -1.37186 -1.62866 1.68094
upperback -5.18283 -2.11558 1.44219
thorax -4.5825 -1.09736 0.605655
lowerneck -9.64792 -8.88211 -10.6072
upperneck 10.0941 -11.2243 6.34
head 5.57906 -5.50376 2.73979
rclavicle 5.21934e-014 -3.10104e-014
rhumerus -37.7635 -0.347608 -82.7154
rradius 36.9189
rwrist 10.3996
rhand -25.4168 -59.2999
rfingers 7.12502
rthumb 1.10898 -89.2767
lclavicle 5.21934e-014 -3.10104e-014
lhumerus -36.9059 -8.02606 80.0579
lradius 45.1971
lwrist -6.77237
lhand -34.9109 -49.2631
lfingers 7.12502
lthumb -8.05879 -19.4368
rfemur -54.3267 5.11011 16.7024
rtibia 79.2132
rfoot -31.5021 -23.0648
rtoes -16.9988
lfemur -49.4851 11.0886 -9.72234
ltibia 73.7819
lfoot -33.0944 15.9989
ltoes -22.0627
949
root -0.465195 14.6209 8.5297 16.3326 -6.03996 -1.12346
lowerback -1.00217 -1.59263 1.37732
upperback -5.4952 -2.06351 1.32792
thorax -5.11327 -1.06292 0.675674
lowerneck -9.1808 -9.10781 -10.8083
upperneck 10.4327 -11.5557 6.24107
head 5.64181 -5.69025 2.71812
rclavicle -2.05991e-014 5.76476e-015
rhumerus -37.5194 0.0760785 -82.806
rradius 36.1926
rwrist 10.1298
rhand -25.9736 -59.1566
rfingers 7.12502
rthumb 0.571224 -89.1356
lclavicle -2.05991e-014 5.76476e-015
lhumerus -37.2257 -7.42227 79.8584
lradius 44.9132
lwrist -5.6355
lhand -35.0912 -48.9794
lfingers 7.12502
lthumb -8.23281 -19.1598
rfemur -54.2383 5.6013 16.1893
rtibia 79.2996
rfoot -31.5252 -23.4196
rtoes -16.9639
lfemur -49.2634 11.0879 -10.1461
ltibia 73.924
lfoot -33.3505 15.9546
ltoes -21.7457
